<svg width="155" height="40" viewBox="0 0 155 40" fill="none" xmlns="http://www.w3.org/2000/svg">
<g clip-path="url(#clip0_1_3263)">
<path d="M28.4037 0H10.6514C4.76879 0 0 4.76879 0 10.6514V28.4037C0 34.2863 4.76879 39.0551 10.6514 39.0551H28.4037C34.2863 39.0551 39.0551 34.2863 39.0551 28.4037V10.6514C39.0551 4.76879 34.2863 0 28.4037 0Z" fill="#FFCE1B"/>
<path d="M20.4471 29.75L16.7271 25.1952L14.5879 22.5077L13.0071 24.4303V25.1952V29.75H8.90625V9.30469H13.0071V18.4729L20.4471 9.30469H25.3973L16.9614 19.4395L25.6316 29.75H20.4471Z" fill="black"/>
<path d="M30.1499 29.7491C31.498 29.7491 32.5909 28.6562 32.5909 27.3081C32.5909 25.96 31.498 24.8672 30.1499 24.8672C28.8018 24.8672 27.709 25.96 27.709 27.3081C27.709 28.6562 28.8018 29.7491 30.1499 29.7491Z" fill="black"/>
<path d="M14.7695 23.2562L17.4826 19.7754" stroke="#FFCE1B"/>
<path d="M152.154 25.0671V13.9883H154.177V25.0671H152.154Z" fill="white"/>
<path fill-rule="evenodd" clip-rule="evenodd" d="M142.765 13.9883L138.943 25.0671H141.129L142.512 20.9032L144.073 16.2315L145.617 20.8493L147.299 19.5451L145.383 13.9883H142.765ZM147.665 20.6056L145.97 21.9204L147.003 25.0671H149.204L147.665 20.6056Z" fill="white"/>
<path d="M133.732 25.0663V22.9844H135.696V25.0663H133.732Z" fill="white"/>
<path d="M126.085 25.0671V15.7729H123.215V13.9883H130.948V15.7729H128.122V25.0671H126.085Z" fill="white"/>
<path d="M116.323 25.2463C115.53 25.2463 114.796 25.1026 114.122 24.8151C113.458 24.5275 112.873 24.126 112.367 23.6105C111.872 23.0949 111.485 22.4902 111.207 21.7962C110.93 21.1023 110.791 20.3439 110.791 19.521C110.791 18.6982 110.925 17.9398 111.193 17.2458C111.47 16.5418 111.857 15.9371 112.352 15.4315C112.858 14.9159 113.448 14.5194 114.122 14.2419C114.796 13.9543 115.53 13.8105 116.323 13.8105C117.116 13.8105 117.825 13.9444 118.45 14.2121C119.084 14.4797 119.619 14.8367 120.056 15.2828C120.492 15.719 120.804 16.1999 120.992 16.7253L119.178 17.5729C118.97 17.0177 118.618 16.5617 118.122 16.2047C117.627 15.838 117.027 15.6546 116.323 15.6546C115.629 15.6546 115.014 15.8181 114.479 16.1453C113.954 16.4725 113.542 16.9236 113.245 17.4986C112.957 18.0735 112.813 18.7477 112.813 19.521C112.813 20.2943 112.957 20.9734 113.245 21.5584C113.542 22.1333 113.954 22.5844 114.479 22.9116C115.014 23.2387 115.629 23.4024 116.323 23.4024C117.027 23.4024 117.627 23.2238 118.122 22.8669C118.618 22.5002 118.97 22.0391 119.178 21.484L120.992 22.3316C120.804 22.8571 120.492 23.3428 120.056 23.789C119.619 24.2252 119.084 24.5771 118.45 24.8448C117.825 25.1125 117.116 25.2463 116.323 25.2463Z" fill="white"/>
<path fill-rule="evenodd" clip-rule="evenodd" d="M102.398 13.9883L98.5762 25.0671H100.762L102.145 20.9032L103.707 16.2315L105.25 20.8501L106.933 19.5458L105.015 13.9883H102.398ZM107.298 20.6063L105.603 21.9211L106.636 25.0671H108.837L107.298 20.6063Z" fill="white"/>
<path d="M89.2559 25.0671V13.9883H93.39C94.1435 13.9883 94.8077 14.127 95.3826 14.4047C95.9676 14.6724 96.4237 15.0689 96.7508 15.5943C97.078 16.1098 97.2415 16.7395 97.2415 17.483C97.2415 18.2166 97.073 18.8461 96.7359 19.3715C96.4088 19.8871 95.9577 20.2836 95.3826 20.5613C94.8077 20.8388 94.1435 20.9776 93.39 20.9776H91.2783V25.0671H89.2559ZM91.2783 19.1931H93.4198C93.7865 19.1931 94.1038 19.1237 94.3715 18.9849C94.6391 18.8362 94.8473 18.633 94.996 18.3753C95.1448 18.1175 95.2191 17.8201 95.2191 17.483C95.2191 17.136 95.1448 16.8386 94.996 16.5907C94.8473 16.3329 94.6391 16.1346 94.3715 15.9958C94.1038 15.8472 93.7865 15.7729 93.4198 15.7729H91.2783V19.1931Z" fill="white"/>
<path d="M74.4863 25.0671V13.9883H76.4196L80.5686 19.6244H79.6466L83.7064 13.9883H85.6396V25.0671H83.6023V16.2933L84.3905 16.4866L80.1819 22.093H79.944L75.8396 16.4866L76.5088 16.2933V25.0671H74.4863Z" fill="white"/>
<path d="M65.4117 25.2463C64.5988 25.2463 63.8404 25.1026 63.1364 24.8151C62.4326 24.5275 61.8179 24.126 61.2924 23.6105C60.767 23.0949 60.3556 22.4902 60.0581 21.7962C59.7707 21.0924 59.627 20.334 59.627 19.521C59.627 18.6982 59.7707 17.9398 60.0581 17.2458C60.3457 16.5517 60.7521 15.947 61.2776 15.4315C61.8031 14.9159 62.4177 14.5194 63.1215 14.2419C63.8255 13.9543 64.5888 13.8105 65.4117 13.8105C66.2346 13.8105 66.9979 13.9543 67.7018 14.2419C68.4057 14.5293 69.0203 14.9308 69.5459 15.4463C70.0713 15.952 70.4777 16.5517 70.7652 17.2458C71.0627 17.9398 71.2113 18.6982 71.2113 19.521C71.2113 20.334 71.0627 21.0924 70.7652 21.7962C70.4678 22.4902 70.0564 23.0949 69.531 23.6105C69.0054 24.126 68.3908 24.5275 67.687 24.8151C66.993 25.1026 66.2346 25.2463 65.4117 25.2463ZM65.4117 23.4024C65.9569 23.4024 66.4576 23.3081 66.9137 23.1197C67.3698 22.9215 67.7663 22.6488 68.1034 22.3019C68.4504 21.9549 68.713 21.5435 68.8914 21.0676C69.0799 20.5917 69.174 20.0762 69.174 19.521C69.174 18.9658 69.0799 18.4553 68.8914 17.9893C68.713 17.5135 68.4504 17.102 68.1034 16.7551C67.7663 16.3981 67.3698 16.1255 66.9137 15.9371C66.4576 15.7488 65.9569 15.6546 65.4117 15.6546C64.8763 15.6546 64.3807 15.7488 63.9246 15.9371C63.4685 16.1255 63.0671 16.3981 62.7201 16.7551C62.383 17.102 62.1203 17.5135 61.9319 17.9893C61.7435 18.4553 61.6494 18.9658 61.6494 19.521C61.6494 20.0762 61.7435 20.5917 61.9319 21.0676C62.1203 21.5435 62.383 21.9549 62.7201 22.3019C63.0671 22.6488 63.4685 22.9215 63.9246 23.1197C64.3807 23.3081 64.8763 23.4024 65.4117 23.4024Z" fill="white"/>
<path d="M48.8184 25.0671V13.9883H50.8408V19.7582L50.2906 19.5649L55.0047 13.9883H57.5475L53.1309 19.2229L53.2499 17.7953L57.6814 25.0671H55.3021L52.3279 20.1895L50.8408 21.9591V25.0671H48.8184Z" fill="white"/>
</g>
<defs>
<clipPath id="clip0_1_3263">
<rect width="155" height="39.0551" fill="white"/>
</clipPath>
</defs>
</svg>
